<?xml version="1.0" encoding="utf-8"?>
<!-- Generator: Adobe Illustrator 21.0.0, SVG Export Plug-In . SVG Version: 6.00 Build 0)  -->
<svg version="1.1" id="圖層_1" xmlns="http://www.w3.org/2000/svg" xmlns:xlink="http://www.w3.org/1999/xlink" x="0px" y="0px"
	 viewBox="0 0 516 216.7" style="enable-background:new 0 0 516 216.7;" xml:space="preserve">
<style type="text/css">
	.st0{fill:#F3C68A;}
	.st1{fill:#F1BB6D;}
	.st2{fill:#FFFFFF;stroke:#BDE2E8;stroke-width:9;stroke-miterlimit:10;}
	.st3{fill:#BDE2E8;}
	.st4{fill:none;stroke:#FFFFFF;stroke-width:4;stroke-linecap:round;stroke-miterlimit:10;}
	.st5{fill:#BEF6FC;}
	.st6{fill:#FFFFFF;}
</style>
<path class="st0" d="M-229.3-158c0,0,185.2-72.9,412.3,17l11.7,4.3h-477.6L-229.3-158z"/>
<path class="st1" d="M-323.7-191.9c0,0,53.8-9.3,111.4,17.6s192.1,22.2,192.1,22.2s40.3,2.8,62.3,15.3h-365.8V-191.9z"/>
<path class="st2" d="M-348.1,14.6L-284.5-2c0,0,7.1-39.1,0.1-60.1l26-2.2c0,0,14,93.7,5.2,123.1l-110.3,18.9
	c0,0-11.4-118.8-7.5-121.6c3.9-2.7,20-7.2,20-7.2L-348.1,14.6z"/>
<polygon class="st2" points="-144.2,-59.1 -73.4,-5.3 -169.7,81.2 -204.5,51.6 "/>
<path class="st2" d="M-292.6,151l15.8-15l19.5,19.5l-15,11.3c0,0,0,46.5-63,82.5l-30.1-29.3C-365.3,220-340.5,162.3-292.6,151z"/>
<path class="st3" d="M140,85.3c0,0,192.7-132.7,311.3-12l48,52C499.3,125.3,344,318,140,85.3z"/>
<polyline class="st3" points="140,85.3 46.7,10 21.3,132.7 140,85.3 "/>
<line class="st4" x1="462.7" y1="102" x2="437.3" y2="119.3"/>
<line class="st4" x1="439.3" y1="95.3" x2="459.3" y2="122"/>
<circle class="st5" cx="305.3" cy="107.5" r="67.3"/>
<circle class="st6" cx="270.4" cy="77.9" r="5.6"/>
<circle class="st6" cx="288.5" cy="123.5" r="3.3"/>
<circle class="st6" cx="302.3" cy="88" r="2.8"/>
<circle class="st6" cx="258.4" cy="108.6" r="4.3"/>
<circle class="st6" cx="331.5" cy="138.8" r="4.3"/>
<circle class="st6" cx="334.7" cy="105" r="4.3"/>
<circle class="st6" cx="309.5" cy="107.8" r="2.8"/>
<circle class="st6" cx="282.3" cy="99" r="1.7"/>
<circle class="st6" cx="310.9" cy="133.1" r="3.3"/>
<circle class="st6" cx="303.7" cy="160.3" r="2.8"/>
<circle class="st6" cx="270.2" cy="134" r="3.2"/>
<circle class="st6" cx="346.4" cy="122.1" r="1.9"/>
<circle class="st6" cx="338.1" cy="61.4" r="4.1"/>
<circle class="st6" cx="333.8" cy="81.6" r="2.6"/>
<circle class="st6" cx="308.3" cy="56.2" r="2.5"/>
<circle class="st6" cx="284.2" cy="54.2" r="2.8"/>
<circle class="st6" cx="299" cy="73.2" r="3.2"/>
</svg>
