<?xml version="1.0"?>
<svg xmlns="http://www.w3.org/2000/svg" xmlns:xlink="http://www.w3.org/1999/xlink" viewBox="0 0 512 512" width="512" height="512"><linearGradient id="a" gradientUnits="userSpaceOnUse" x1="255.881" x2="255.881" y1="38" y2="478.073"><stop offset="0" stop-color="#00efd1"/><stop offset="1" stop-color="#00acea"/></linearGradient><linearGradient id="b" x1="415.196" x2="415.196" xlink:href="#a" y1="38" y2="478.073"/><path d="m420.381 175.521c-39.2-25.76-78.1-38.822-115.624-38.822-42.9 0-87.238 16.874-131.776 50.153a389.592 389.592 0 0 0 -53.851 49.044 302.685 302.685 0 0 0 -23.849-39.873c-22-30.59-44.686-46.1-67.136-46.1a10.121 10.121 0 0 0 -10.145 9.997v192.16a10.121 10.121 0 0 0 10.141 10c22.45 0 45.061-15.511 67.066-46.1a303.233 303.233 0 0 0 23.883-39.873 390.049 390.049 0 0 0 53.869 49.044c44.541 33.278 88.883 50.149 131.785 50.149 37.527 0 76.433-13.062 115.632-38.824 26.605-17.5 48.167-37.624 61.586-51.441a41.632 41.632 0 0 0 -.016-58.094c-13.402-13.796-34.961-33.92-61.565-51.42zm-315.175 83.021c-13.567 29.458-39.206 72.763-67.206 81.834v-168.752c28 9.069 53.7 52.363 67.276 81.835a10.031 10.031 0 0 0 -.07 5.083zm199.547 96.758c-38.492 0-78.8-15.535-119.8-46.174a366.946 366.946 0 0 1 -56.92-53.126 366.946 366.946 0 0 1 56.915-53.129c41.005-30.639 81.313-46.174 119.8-46.174 27.334 0 55.763 7.935 84.758 23.621a66.654 66.654 0 0 0 -22.038 18.733c-11.852 15.31-18.38 35.535-18.38 56.949s6.528 41.639 18.38 56.949a66.654 66.654 0 0 0 22.038 18.733c-28.99 15.686-57.419 23.618-84.753 23.618zm162.847-84.178a359.965 359.965 0 0 1 -55.249 46.66c-24.063-1.682-43.258-28.751-43.258-61.782s19.195-60.1 43.257-61.782a360 360 0 0 1 55.232 46.642 21.7 21.7 0 0 1 .018 30.262z" fill="url(#a)"/><path d="m415.2 219.245a26.981 26.981 0 1 0 27 26.955 27.011 27.011 0 0 0 -27-26.955zm0 33.962a6.981 6.981 0 1 1 7-7.007 7.015 7.015 0 0 1 -7 7.007z" fill="url(#b)"/></svg>
