<?xml version="1.0" encoding="utf-8"?>
<!-- Generator: Adobe Illustrator 21.0.0, SVG Export Plug-In . SVG Version: 6.00 Build 0)  -->
<svg version="1.1" id="圖層_1" xmlns="http://www.w3.org/2000/svg" xmlns:xlink="http://www.w3.org/1999/xlink" x="0px" y="0px"
	 viewBox="0 0 1000 1000" style="enable-background:new 0 0 1000 1000;" xml:space="preserve">
<style type="text/css">
	.st0{fill:#663C23;}
	.st1{fill:#5C9959;}
	.st2{fill:#906047;}
</style>
<path class="st0" d="M1074.8,476.5c0,0,208.8,342.4,227.7,355.6c18.8,13.2,276.6-353.7,276.6-353.7L1074.8,476.5z"/>
<path class="st1" d="M1082.3,265.3c0,0,163.8-72.3,419.6,0c246.5,69.7-416.6,81.9-462.8,39.6
	C1028.3,294.9,1082.3,265.3,1082.3,265.3z"/>
<path class="st1" d="M997.2,186.8c0,0-118.5-218.5-317.3-161.7S305.8,152.2,187.3,167S25.6,186.8,25.6,186.8H997.2z"/>
<path class="st2" d="M33,186.8c0,0,279,492.6,445.7,635.8s176.5,166.7,279,124.7c102.5-42,239.5-760.5,239.5-760.5H33z"/>
<g>
	<path class="st1" d="M995,187c-40.3-0.3-80.3,3-120.5,6.1c-20.1,1.6-40.2,3-60.4,4c-20.2,1.1-40.5,1.6-60.9,1
		c-2.6-0.1-5.1-0.1-7.7-0.3c-2.6-0.1-5.2-0.3-7.7-0.5c-5.1-0.4-10.2-0.9-15.3-1.5c-10.1-1.2-20.1-2.7-30-4.1
		c-9.9-1.4-19.7-2.7-29.5-3.4c-9.7-0.8-19.4-1.1-28.9-0.4c-2.4,0.2-4.7,0.4-7,0.7c-1.2,0.1-2.3,0.3-3.5,0.5
		c-1.2,0.2-2.4,0.4-3.6,0.6c-4.8,0.8-9.7,1.8-14.6,2.7c-9.8,2-19.6,4.1-29.8,6c-10.1,1.8-20.5,3.3-31.1,3.8
		c-5.3,0.2-10.7,0.2-16.1-0.1c-5.4-0.3-10.7-1-15.9-1.8c-10.3-1.7-20.2-4-29.7-5.7c-9-1.6-18.5-1.8-28.1-1.3
		c-19.3,0.8-39.1,4.2-59.2,6.7c-10.1,1.2-20.4,2.3-30.9,2.6l-4,0l-3.9-0.1c-2.6-0.1-5.2,0-7.7-0.2l-7.7-0.4l-7.7-0.6
		c-10.2-0.9-20.4-2.1-30.4-3.5c-10-1.4-20-3-29.9-4.4c-9.9-1.4-19.7-2.7-29.6-3.4c-9.9-0.8-19.7-1.1-29.6-1.1
		c-20.3,0.2-40.5-0.2-60.6-0.8l-30.2-1l-30.2-0.8c-5-0.1-10-0.2-15.1-0.2c-5,0-10.1-0.1-15.1,0c-10.1,0-20.1,0.3-30.2,0.7
		c5-0.6,10-1.4,15-1.9l7.5-0.8l7.5-0.7c10.1-0.8,20.1-1.5,30.2-2c20.2-1,40.3-1.4,60.4-2c20.1-0.5,40.2-1,60.2-2.1
		c5.1-0.2,10.3-0.5,15.4-0.5c5.1-0.1,10.3,0.1,15.4,0.3c10.2,0.4,20.4,1.3,30.5,2.4c20.2,2.2,40,4.9,59.7,6.1l7.4,0.4l7.4,0.2
		c1.2,0,2.5,0.1,3.7,0l3.7,0l3.7,0l3.6-0.1c9.6-0.4,19.3-1.6,29.2-3c9.8-1.4,19.8-3,29.9-4.4c10.1-1.4,20.3-2.6,30.8-3.2
		c10.4-0.5,21.2-0.4,32.1,1.5c10.3,1.8,20,4,29.6,5.6c4.8,0.8,9.5,1.4,14.1,1.7c4.7,0.3,9.4,0.4,14.1,0.1c9.5-0.4,19.1-1.7,28.8-3.3
		c9.7-1.7,19.5-3.7,29.5-5.6c5-0.9,10-1.9,15.1-2.7c1.3-0.2,2.5-0.4,3.9-0.6c1.3-0.2,2.7-0.4,4-0.5c2.7-0.3,5.3-0.5,8-0.6
		c21.3-1.1,41.9,2,61.8,5.3c10,1.6,19.9,3.4,29.7,4.9c4.9,0.7,9.8,1.4,14.7,1.9c2.4,0.3,4.9,0.5,7.3,0.7c2.4,0.2,4.9,0.3,7.4,0.5
		c19.8,1.3,39.8,1.4,59.9,1.4c20-0.1,40.1-0.7,60.3-1.1l30.2-0.5l15.1-0.1l15.1,0.1l15.1,0.3l15.1,0.5l15.1,0.9
		C985,186.1,990,186.5,995,187z"/>
</g>
</svg>
