<?xml version="1.0" encoding="utf-8"?>
<!-- Generator: Adobe Illustrator 21.0.0, SVG Export Plug-In . SVG Version: 6.00 Build 0)  -->
<svg version="1.1" id="圖層_1" xmlns="http://www.w3.org/2000/svg" xmlns:xlink="http://www.w3.org/1999/xlink" x="0px" y="0px"
	 viewBox="0 0 818 808" style="enable-background:new 0 0 818 808;" xml:space="preserve">
<style type="text/css">
	.st0{fill:#906047;}
	.st1{fill:#DDD360;}
	.st2{fill:none;stroke:#FFFFFF;stroke-width:10;stroke-linecap:round;stroke-miterlimit:10;}
	.st3{fill:#FFFFFF;}
	.st4{fill:none;stroke:#FFFFFF;stroke-width:7;stroke-linecap:round;stroke-miterlimit:10;}
	.st5{fill:#D9D64F;}
</style>
<path class="st0" d="M786.7,958.2"/>
<circle class="st1" cx="411" cy="403" r="363"/>
<g>
	<path class="st2" d="M96,349c56.2,0,56.2,38,112.4,38c56.2,0,56.2-38,112.4-38c56.2,0,56.2,38,112.4,38c56.2,0,56.2-38,112.4-38
		s56.2,38,112.4,38"/>
</g>
<g>
	<path class="st2" d="M152,465c56.2,0,56.2,38,112.4,38c56.2,0,56.2-38,112.4-38c56.2,0,56.2,38,112.4,38c56.2,0,56.2-38,112.4-38
		c56.2,0,56.2,38,112.4,38"/>
</g>
<path class="st3" d="M461.3,564.7l14-13.3l17.3,17.3l-13.3,10c0,0,0,41.3-56,73.3l-26.7-26C396.7,626,418.7,574.7,461.3,564.7z"/>
<polygon class="st3" points="279.3,583.3 254.7,600.7 234,580 223.3,590.7 278,650 328.7,606.7 274.7,552.7 266.7,562 "/>
<polygon class="st3" points="565.3,642.7 571.3,647.3 524.7,701.3 519.3,696.7 "/>
<circle class="st1" cx="1253" cy="390" r="363"/>
<g>
	<path class="st3" d="M1227.3,513.7l14-13.3l17.3,17.3l-13.3,10c0,0,0,41.3-56,73.3l-26.7-26C1162.7,575,1184.7,523.7,1227.3,513.7z
		"/>
	<polygon class="st3" points="1045.3,532.3 1020.7,549.7 1000,529 989.3,539.7 1044,599 1094.7,555.7 1040.7,501.7 1032.7,511 	"/>
	<polygon class="st3" points="1331.3,591.7 1337.3,596.3 1290.7,650.3 1285.3,645.7 	"/>
</g>
<path class="st2" d="M1432,190c0,0-100,120-158,144s-106-54-58-76"/>
<path class="st2" d="M1522,338c0,0-60,112-102,112s-50-62-26-68"/>
<circle class="st1" cx="2117" cy="404" r="363"/>
<g>
	<path class="st3" d="M2167.3,527.7l14-13.3l17.3,17.3l-13.3,10c0,0,0,41.3-56,73.3l-26.7-26C2102.7,589,2124.7,537.7,2167.3,527.7z
		"/>
	<polygon class="st3" points="1985.3,546.3 1960.7,563.7 1940,543 1929.3,553.7 1984,613 2034.7,569.7 1980.7,515.7 1972.7,525 	"/>
	<polygon class="st3" points="2271.3,605.7 2277.3,610.3 2230.7,664.3 2225.3,659.7 	"/>
</g>
<circle class="st3" cx="1964" cy="226" r="40"/>
<path class="st2" d="M1988,164c18-28,20-38,20-38"/>
<path class="st2" d="M2030,214c40-8,50-10,50-10"/>
<path class="st2" d="M2010,274c22,18,32,30,32,30"/>
<path class="st2" d="M1930,290c-24,24-24,24-24,24"/>
<path class="st2" d="M1906,218c-32-2-44-2-44-2"/>
<path class="st2" d="M1930,164c-24-26-24-26-24-26"/>
<g>
	<path class="st4" d="M1981,366c0,9.3-6,9.3-6,18.7c0,9.3,6,9.3,6,18.7c0,9.3-6,9.3-6,18.7"/>
</g>
<g>
	<path class="st4" d="M2141,339c0,9.3-6,9.3-6,18.7c0,9.3,6,9.3,6,18.7c0,9.3-6,9.3-6,18.7"/>
</g>
<g>
	<path class="st4" d="M2292,381c0,9.3-6,9.3-6,18.7c0,9.3,6,9.3,6,18.7c0,9.3-6,9.3-6,18.7"/>
</g>
<path class="st4" d="M1792,504c0,0,296.9-73.4,519.8,23.4c29.3,12.7,57.3,28.4,83.2,47.6"/>
<path class="st4" d="M2328,529c0,0,50-47,94-38"/>
<path class="st4" d="M943,470c459,8,612,0,612,0"/>
<circle class="st5" cx="315" cy="-201" r="89"/>
</svg>
