<?xml version="1.0" encoding="utf-8"?>
<!-- Generator: Adobe Illustrator 21.0.0, SVG Export Plug-In . SVG Version: 6.00 Build 0)  -->
<svg version="1.1" id="圖層_1" xmlns="http://www.w3.org/2000/svg" xmlns:xlink="http://www.w3.org/1999/xlink" x="0px" y="0px"
	 viewBox="0 0 796 806" style="enable-background:new 0 0 796 806;" xml:space="preserve">
<style type="text/css">
	.st0{fill:#906047;}
	.st1{fill:#DDD360;}
	.st2{fill:none;stroke:#FFFFFF;stroke-width:10;stroke-linecap:round;stroke-miterlimit:10;}
	.st3{fill:#FFFFFF;}
	.st4{fill:none;stroke:#FFFFFF;stroke-width:7;stroke-linecap:round;stroke-miterlimit:10;}
	.st5{fill:#D9D64F;}
</style>
<path class="st0" d="M-67.3,956.2"/>
<circle class="st1" cx="-443" cy="401" r="363"/>
<g>
	<path class="st2" d="M-758,347c56.2,0,56.2,38,112.4,38c56.2,0,56.2-38,112.4-38c56.2,0,56.2,38,112.4,38c56.2,0,56.2-38,112.4-38
		s56.2,38,112.4,38"/>
</g>
<g>
	<path class="st2" d="M-702,463c56.2,0,56.2,38,112.4,38c56.2,0,56.2-38,112.4-38c56.2,0,56.2,38,112.4,38c56.2,0,56.2-38,112.4-38
		s56.2,38,112.4,38"/>
</g>
<path class="st3" d="M-392.7,562.7l14-13.3l17.3,17.3l-13.3,10c0,0,0,41.3-56,73.3l-26.7-26C-457.3,624-435.3,572.7-392.7,562.7z"/>
<polygon class="st3" points="-574.7,581.3 -599.3,598.7 -620,578 -630.7,588.7 -576,648 -525.3,604.7 -579.3,550.7 -587.3,560 "/>
<polygon class="st3" points="-288.7,640.7 -282.7,645.3 -329.3,699.3 -334.7,694.7 "/>
<circle class="st1" cx="399" cy="388" r="363"/>
<g>
	<path class="st3" d="M373.3,511.7l14-13.3l17.3,17.3l-13.3,10c0,0,0,41.3-56,73.3l-26.7-26C308.7,573,330.7,521.7,373.3,511.7z"/>
	<polygon class="st3" points="191.3,530.3 166.7,547.7 146,527 135.3,537.7 190,597 240.7,553.7 186.7,499.7 178.7,509 	"/>
	<polygon class="st3" points="477.3,589.7 483.3,594.3 436.7,648.3 431.3,643.7 	"/>
</g>
<path class="st2" d="M578,188c0,0-100,120-158,144s-106-54-58-76"/>
<path class="st2" d="M668,336c0,0-60,112-102,112s-50-62-26-68"/>
<circle class="st1" cx="1263" cy="402" r="363"/>
<g>
	<path class="st3" d="M1313.3,525.7l14-13.3l17.3,17.3l-13.3,10c0,0,0,41.3-56,73.3l-26.7-26C1248.7,587,1270.7,535.7,1313.3,525.7z
		"/>
	<polygon class="st3" points="1131.3,544.3 1106.7,561.7 1086,541 1075.3,551.7 1130,611 1180.7,567.7 1126.7,513.7 1118.7,523 	"/>
	<polygon class="st3" points="1417.3,603.7 1423.3,608.3 1376.7,662.3 1371.3,657.7 	"/>
</g>
<circle class="st3" cx="1110" cy="224" r="40"/>
<path class="st2" d="M1134,162c18-28,20-38,20-38"/>
<path class="st2" d="M1176,212c40-8,50-10,50-10"/>
<path class="st2" d="M1156,272c22,18,32,30,32,30"/>
<path class="st2" d="M1076,288c-24,24-24,24-24,24"/>
<path class="st2" d="M1052,216c-32-2-44-2-44-2"/>
<path class="st2" d="M1076,162c-24-26-24-26-24-26"/>
<g>
	<path class="st4" d="M1127,364c0,9.3-6,9.3-6,18.7c0,9.3,6,9.3,6,18.7c0,9.3-6,9.3-6,18.7"/>
</g>
<g>
	<path class="st4" d="M1287,337c0,9.3-6,9.3-6,18.7c0,9.3,6,9.3,6,18.7c0,9.3-6,9.3-6,18.7"/>
</g>
<g>
	<path class="st4" d="M1438,379c0,9.3-6,9.3-6,18.7c0,9.3,6,9.3,6,18.7c0,9.3-6,9.3-6,18.7"/>
</g>
<path class="st4" d="M938,502c0,0,296.9-73.4,519.8,23.4c29.3,12.7,57.3,28.4,83.2,47.6"/>
<path class="st4" d="M1474,527c0,0,50-47,94-38"/>
<path class="st4" d="M89,468c459,8,612,0,612,0"/>
<circle class="st5" cx="-539" cy="-203" r="89"/>
</svg>
