<?xml version="1.0" encoding="utf-8"?>
<!-- Generator: Adobe Illustrator 21.0.0, SVG Export Plug-In . SVG Version: 6.00 Build 0)  -->
<svg version="1.1" id="圖層_1" xmlns="http://www.w3.org/2000/svg" xmlns:xlink="http://www.w3.org/1999/xlink" x="0px" y="0px"
	 viewBox="0 0 798 796" style="enable-background:new 0 0 798 796;" xml:space="preserve">
<style type="text/css">
	.st0{fill:#906047;}
	.st1{fill:#DDD360;}
	.st2{fill:none;stroke:#FFFFFF;stroke-width:10;stroke-linecap:round;stroke-miterlimit:10;}
	.st3{fill:#FFFFFF;}
	.st4{fill:none;stroke:#FFFFFF;stroke-width:7;stroke-linecap:round;stroke-miterlimit:10;}
	.st5{fill:#D9D64F;}
</style>
<path class="st0" d="M-931.3,952.2"/>
<circle class="st1" cx="-1307" cy="397" r="363"/>
<g>
	<path class="st2" d="M-1622,343c56.2,0,56.2,38,112.4,38c56.2,0,56.2-38,112.4-38c56.2,0,56.2,38,112.4,38c56.2,0,56.2-38,112.4-38
		c56.2,0,56.2,38,112.4,38"/>
</g>
<g>
	<path class="st2" d="M-1566,459c56.2,0,56.2,38,112.4,38c56.2,0,56.2-38,112.4-38c56.2,0,56.2,38,112.4,38c56.2,0,56.2-38,112.4-38
		c56.2,0,56.2,38,112.4,38"/>
</g>
<path class="st3" d="M-1256.7,558.7l14-13.3l17.3,17.3l-13.3,10c0,0,0,41.3-56,73.3l-26.7-26C-1321.3,620-1299.3,568.7-1256.7,558.7
	z"/>
<polygon class="st3" points="-1438.7,577.3 -1463.3,594.7 -1484,574 -1494.7,584.7 -1440,644 -1389.3,600.7 -1443.3,546.7 
	-1451.3,556 "/>
<polygon class="st3" points="-1152.7,636.7 -1146.7,641.3 -1193.3,695.3 -1198.7,690.7 "/>
<circle class="st1" cx="-465" cy="384" r="363"/>
<g>
	<path class="st3" d="M-490.7,507.7l14-13.3l17.3,17.3l-13.3,10c0,0,0,41.3-56,73.3l-26.7-26C-555.3,569-533.3,517.7-490.7,507.7z"
		/>
	<polygon class="st3" points="-672.7,526.3 -697.3,543.7 -718,523 -728.7,533.7 -674,593 -623.3,549.7 -677.3,495.7 -685.3,505 	"/>
	<polygon class="st3" points="-386.7,585.7 -380.7,590.3 -427.3,644.3 -432.7,639.7 	"/>
</g>
<path class="st2" d="M-286,184c0,0-100,120-158,144s-106-54-58-76"/>
<path class="st2" d="M-196,332c0,0-60,112-102,112s-50-62-26-68"/>
<circle class="st1" cx="399" cy="398" r="363"/>
<g>
	<path class="st3" d="M449.3,521.7l14-13.3l17.3,17.3l-13.3,10c0,0,0,41.3-56,73.3l-26.7-26C384.7,583,406.7,531.7,449.3,521.7z"/>
	<polygon class="st3" points="267.3,540.3 242.7,557.7 222,537 211.3,547.7 266,607 316.7,563.7 262.7,509.7 254.7,519 	"/>
	<polygon class="st3" points="553.3,599.7 559.3,604.3 512.7,658.3 507.3,653.7 	"/>
</g>
<circle class="st3" cx="246" cy="220" r="40"/>
<path class="st2" d="M270,158c18-28,20-38,20-38"/>
<path class="st2" d="M312,208c40-8,50-10,50-10"/>
<path class="st2" d="M292,268c22,18,32,30,32,30"/>
<path class="st2" d="M212,284c-24,24-24,24-24,24"/>
<path class="st2" d="M188,212c-32-2-44-2-44-2"/>
<path class="st2" d="M212,158c-24-26-24-26-24-26"/>
<g>
	<path class="st4" d="M263,360c0,9.3-6,9.3-6,18.7c0,9.3,6,9.3,6,18.7c0,9.3-6,9.3-6,18.7"/>
</g>
<g>
	<path class="st4" d="M423,333c0,9.3-6,9.3-6,18.7c0,9.3,6,9.3,6,18.7c0,9.3-6,9.3-6,18.7"/>
</g>
<g>
	<path class="st4" d="M574,375c0,9.3-6,9.3-6,18.7c0,9.3,6,9.3,6,18.7c0,9.3-6,9.3-6,18.7"/>
</g>
<path class="st4" d="M74,498c0,0,296.9-73.4,519.8,23.4c29.3,12.7,57.3,28.4,83.2,47.6"/>
<path class="st4" d="M610,523c0,0,50-47,94-38"/>
<path class="st4" d="M-775,464c459,8,612,0,612,0"/>
<circle class="st5" cx="-1403" cy="-207" r="89"/>
</svg>
