<?xml version="1.0" encoding="utf-8"?>
<!-- Generator: Adobe Illustrator 21.0.0, SVG Export Plug-In . SVG Version: 6.00 Build 0)  -->
<svg version="1.1" id="圖層_1" xmlns="http://www.w3.org/2000/svg" xmlns:xlink="http://www.w3.org/1999/xlink" x="0px" y="0px"
	 viewBox="0 0 1920 1080" style="enable-background:new 0 0 1920 1080;" xml:space="preserve">
<style type="text/css">
	.st0{opacity:0.3;fill:#8EE0ED;enable-background:new    ;}
</style>
<path class="st0" d="M-14,120.4c0,0,337.9-28,551.3-1.8s512.9-11.2,655.1-4.2c142.2,7,323.2,16.1,438.2,3.8s310.9,2.1,310.9,2.1
	l-0.6,985.6L-16,1110C-16,1110-14,118.9-14,120.4z"/>
<path class="st0" d="M1955.5,120.4c0,0,321.4-28,534.8-1.8c213.4,26.2,512.9-11.2,655.1-4.2c142.2,7,323.2,16.1,438.2,3.8
	S3891,105,3891,105l2.9,1001H1953C1953,1106,1955.5,118.9,1955.5,120.4z"/>
</svg>
