<?xml version="1.0" encoding="utf-8"?>
<!-- Generator: Adobe Illustrator 21.0.0, SVG Export Plug-In . SVG Version: 6.00 Build 0)  -->
<svg version="1.1" id="圖層_1" xmlns="http://www.w3.org/2000/svg" xmlns:xlink="http://www.w3.org/1999/xlink" x="0px" y="0px"
	 viewBox="0 0 1920 1080" style="enable-background:new 0 0 1920 1080;" xml:space="preserve">
<style type="text/css">
	.st0{opacity:0.69;fill:#77D3E8;enable-background:new    ;}
	.st1{opacity:0.55;fill:#8EE0ED;enable-background:new    ;}
</style>
<path class="st0" d="M1937,114.6c-109.8-8.6-223.7-27.7-319.1-26.9c-238.7,1.9-425.9,126.6-884.9,22.9C446.1,45.7-12.4,114-12.4,114
	c0-2.8,1,1632.5,1,1632.5l1947.9-7.5L1937,114.6z"/>
<path class="st1" d="M-2690.6,961.2c0,0,437.9-45.8,728.7-2.9c290.8,43,698.8-18.3,892.6-6.9c193.8,11.5,440.3,26.4,597.1,6.3
	c156.7-20.1,222.6-25.8,222.6-25.8V2574H-2694C-2694,2574-2690.6,958.8-2690.6,961.2z"/>
<path class="st0" d="M3926.7,113.5c-108.8-8.6-221.2-19.1-315.8-18.3c-236.6,1.9-422.2,126.6-877.2,22.9
	c-284.5-64.9-739,3.4-739,3.4c0-2.8-6.4,1625-6.4,1625h1938.4V113.5z"/>
</svg>
