<?xml version="1.0" encoding="utf-8"?>
<!-- Generator: Adobe Illustrator 21.0.0, SVG Export Plug-In . SVG Version: 6.00 Build 0)  -->
<svg version="1.1" xmlns="http://www.w3.org/2000/svg" xmlns:xlink="http://www.w3.org/1999/xlink" x="0px" y="0px"
	 viewBox="0 0 1943 1000" style="enable-background:new 0 0 1943 1000;" xml:space="preserve">
<style type="text/css">
	.st0{display:none;}
	.st1{display:inline;fill:#617286;}
	.st2{fill:#FFFFFF;}
</style>
<g id="圖層_2" class="st0">
	<rect x="-169.2" y="-46.2" class="st1" width="2211.2" height="1152.1"/>
</g>
<g id="圖層_1">
	<path class="st2" d="M146.1,435.1l-36.3-65.4c0,0,0-26.2,15.3-8.7s34.2,65.4,34.2,65.4s29.8-14.5,32.7,7.3s-4.4,25.4-4.4,25.4
		l-10.9-19.6l-8,2.9c0,0,16.7,27.6,16.7,34.2c0,6.5-27.6-29.8-27.6-29.8l-7.3,4.4c0,0,13.8,19.6,10.2,19.6
		C157,470.7,112,457.6,146.1,435.1z"/>
	<path class="st2" d="M264.1,550.8l54,19.8c0,0,24.6-24.6,30-43.2l19.8,11.4c0,0-36.6,74.4-57.6,91.3l-88.9-41.4
		c0,0,51-91.3,55.2-91.3c4.2,0,18,4.8,18,4.8L264.1,550.8z"/>
	<path class="st2" d="M798.4,421.1c0,0,8.4-0.6,7.8,4.8S757,507,757,507s-9-3-7.8-5.4C750.4,499.2,798.4,421.1,798.4,421.1z"/>
	<path class="st2" d="M59.7,896.2l47.7-32.1c0,0-5.5-34.4-17.4-49.7l20.9-9.4c0,0,38.8,73.3,40.1,100.2l-85.7,47.7
		c0,0-44-94.9-41.5-98.3c2.5-3.4,14.5-11.8,14.5-11.8L59.7,896.2z"/>
	<path class="st2" d="M764.3,736.4l22.7-71.3c0,0,19.1-17.9,16.8,5.1S779.6,740,779.6,740s31,11.7,17.1,28.8
		c-13.9,17.1-21.5,14.3-21.5,14.3l6.8-21.4l-7.6-3.8c0,0-8.6,31.1-13.4,35.6c-4.8,4.5,2.8-40.5,2.8-40.5l-8.2-2.3
		c0,0-4.8,23.5-7.3,20.9C745.9,768.8,724.5,727,764.3,736.4z"/>
	<g>
		<polygon class="st2" points="240.9,39.7 290.1,77 223.2,137.2 198.9,116.6 		"/>
		<path class="st2" d="M240.9,39.7c0,0,30.5,3.4,49.2,37.4C290.1,77,248.1,57.5,240.9,39.7z"/>
	</g>
	<path class="st2" d="M379.1,76.3c0,0,0.4-8.4,5.7-7.2c5.3,1.2,74.6,58.6,74.6,58.6s-4.1,8.6-6.3,7.1S379.1,76.3,379.1,76.3z"/>
	<path class="st2" d="M1042.9,232.8l-19.1-72.4c0,0,6.5-25.4,16.9-4.7c10.5,20.7,16.9,71.8,16.9,71.8s32.5-6.7,29.9,15.1
		s-10.5,23.6-10.5,23.6l-5.7-21.7l-8.5,0.8c0,0,9.4,30.9,7.8,37.2s-19.4-35.7-19.4-35.7l-8.1,2.4c0,0,8.5,22.4,5,21.5
		C1044.6,270,1004.2,246.2,1042.9,232.8z"/>
	<path class="st2" d="M1234.2,542.8l54,19.8c0,0,24.6-24.6,30-43.2l19.8,11.4c0,0-36.6,74.4-57.6,91.3l-88.9-41.4
		c0,0,51-91.3,55.2-91.3c4.2,0,18,4.8,18,4.8L1234.2,542.8z"/>
	<path class="st2" d="M1768.5,413.1c0,0,8.4-0.6,7.8,4.8s-49.2,81.1-49.2,81.1s-9-3-7.8-5.4C1720.5,491.2,1768.5,413.1,1768.5,413.1
		z"/>
	<path class="st2" d="M1069,862.3l54-39.4c0,0-3.7-38.5-15.7-55l23.3-11.9c0,0,37.4,80.3,37,110.6l-96.2,59.4
		c0,0-41.6-104.3-38.7-108.3s16.5-14.2,16.5-14.2L1069,862.3z"/>
	<path class="st2" d="M1667.1,724.4l50.2-72.9c0,0,27.7-13.8,17.3,11.6c-10.5,25.3-51.3,70.6-51.3,70.6s31.1,23.9,9.5,38.5
		c-21.6,14.5-29.2,8.8-29.2,8.8l15.1-21.9l-7.3-6.9c0,0-20.5,32.2-27.4,35.7c-6.9,3.4,17.1-44.9,17.1-44.9l-8.4-5.4
		c0,0-13.5,25-15.4,21.1C1635.1,754.7,1625.3,700.1,1667.1,724.4z"/>
	<g>
		<polygon class="st2" points="1574.1,278.4 1626.2,245.2 1659.4,328.9 1631.7,344.5 		"/>
		<path class="st2" d="M1574.1,278.4c0,0,13.8-27.4,52.2-33.2C1626.2,245.2,1593.3,277.8,1574.1,278.4z"/>
	</g>
	<path class="st2" d="M1301.2,80.3c0,0,0.4-8.4,5.7-7.2c5.3,1.2,74.6,58.6,74.6,58.6s-4.1,8.6-6.3,7.1
		C1372.9,137.3,1301.2,80.3,1301.2,80.3z"/>
</g>
</svg>
