<?xml version="1.0" encoding="utf-8"?>
<!-- Generator: Adobe Illustrator 21.0.0, SVG Export Plug-In . SVG Version: 6.00 Build 0)  -->
<svg version="1.1" id="圖層_1" xmlns="http://www.w3.org/2000/svg" xmlns:xlink="http://www.w3.org/1999/xlink" x="0px" y="0px"
	 viewBox="0 0 153.3 149.3" style="enable-background:new 0 0 153.3 149.3;" xml:space="preserve">
<style type="text/css">
	.st0{fill:#F3C68A;}
	.st1{fill:#F1BB6D;}
	.st2{fill:#FFFFFF;stroke:#BDE2E8;stroke-width:9;stroke-miterlimit:10;}
</style>
<path class="st0" d="M158-274c0,0,185.2-72.9,412.3,17l11.7,4.3H104.4L158-274z"/>
<path class="st1" d="M63.6-307.9c0,0,53.8-9.3,111.4,17.6c57.6,26.9,192.1,22.2,192.1,22.2s40.3,2.8,62.3,15.3H63.6V-307.9z"/>
<path class="st2" d="M39.2-101.4l63.6-16.5c0,0,7.1-39.1,0.1-60.1l26-2.2c0,0,14,93.7,5.2,123.1L23.8-38.2c0,0-11.4-118.8-7.5-121.6
	s20-7.2,20-7.2L39.2-101.4z"/>
<polygon class="st2" points="243.1,-175.1 313.9,-121.3 217.7,-34.8 182.8,-64.4 "/>
<path class="st2" d="M94.8,35l15.8-15L130,39.5l-15,11.3c0,0,0,46.5-63,82.5L21.9,104C22,104,46.8,46.3,94.8,35z"/>
</svg>
