<?xml version="1.0" encoding="utf-8"?>
<!-- Generator: Adobe Illustrator 21.0.0, SVG Export Plug-In . SVG Version: 6.00 Build 0)  -->
<svg version="1.1" id="圖層_1" xmlns="http://www.w3.org/2000/svg" xmlns:xlink="http://www.w3.org/1999/xlink" x="0px" y="0px"
	 viewBox="0 0 148.7 165.3" style="enable-background:new 0 0 148.7 165.3;" xml:space="preserve">
<style type="text/css">
	.st0{fill:#F3C68A;}
	.st1{fill:#F1BB6D;}
	.st2{fill:#FFFFFF;stroke:#BDE2E8;stroke-width:9;stroke-miterlimit:10;}
</style>
<path class="st0" d="M-16-84c0,0,185.2-72.9,412.3,17l11.7,4.3H-69.6L-16-84z"/>
<path class="st1" d="M-110.4-117.9c0,0,53.8-9.3,111.4,17.6s192.1,22.2,192.1,22.2s40.3,2.8,62.3,15.3h-365.8V-117.9z"/>
<path class="st2" d="M-134.8,88.6L-71.2,72c0,0,7.1-39.1,0.1-60.1l26-2.2c0,0,14,93.7,5.2,123.1l-110.3,18.9
	c0,0-11.4-118.8-7.5-121.6c3.9-2.7,20-7.2,20-7.2L-134.8,88.6z"/>
<polygon class="st2" points="69.1,14.9 139.9,68.7 43.7,155.2 8.8,125.6 "/>
<path class="st2" d="M-79.2,225l15.8-15l19.5,19.5l-15,11.3c0,0,0,46.5-63,82.5l-30.1-29.3C-152,294-127.2,236.3-79.2,225z"/>
</svg>
