<?xml version="1.0" encoding="utf-8"?>
<!-- Generator: Adobe Illustrator 21.0.0, SVG Export Plug-In . SVG Version: 6.00 Build 0)  -->
<svg version="1.1" id="圖層_1" xmlns="http://www.w3.org/2000/svg" xmlns:xlink="http://www.w3.org/1999/xlink" x="0px" y="0px"
	 viewBox="0 0 1370.9 183" style="enable-background:new 0 0 1370.9 183;" xml:space="preserve">
<style type="text/css">
	.st0{fill:#FFFFFF;stroke:#BDE2E8;stroke-width:7;stroke-miterlimit:10;}
	.st1{fill:none;stroke:#BDE2E8;stroke-width:7;stroke-miterlimit:10;}
</style>
<path class="st0" d="M124.3,71.4c0,0,81.5-46.9,98.8-39.5s6.2-3.7,43.2,9.9s18.5,11.1,79-7.4s54.3-17.3,101.2,1.2
	s85.2,33.3,138.3,30.9c53.1-2.5,54.3-6.2,87.7-17.3c33.3-11.1,34.6-19.8,70.4-13.6s49.4,9.9,65.4,13.6s56.8,25.9,86.4,13.6
	c29.6-12.3,46.9-29.6,67.9-30.9c21-1.2,51.9-11.1,74.1-1.2c22.2,9.9,8.6,12.3,43.2,23.5s19.8,16,43.2,11.1s38.3-18.5,63-16
	c24.7,2.5,54.3,65.4,95.1,79c40.7,13.6,64.2,13.6,72.8,24.7c8.6,11.1,8.6,25.9,8.6,25.9L11.9,180c0,0,16-40.7,37-50.6
	c21-9.9-11.1,1.2,23.5-24.7S124.3,71.4,124.3,71.4z"/>
<path class="st1" d="M253.4,112.9c0,0,9-11.5,20.5-6l10-10.5l10.5,8l-8,10c0,0,8.5,3,6,9c-2.5,6-3.5,9-3.5,9"/>
<polyline class="st1" points="690.4,91.9 712.4,70.9 725.4,76.4 720.4,109.9 "/>
<path class="st1" d="M979.9,137.4c0,0-1,7-8.5,7s-15-4-15-4l-6.5,8.5l20,12.5l12,5l24.5-29.5l-30.5-24l-4,7.5
	C971.9,120.4,980.9,133.9,979.9,137.4z"/>
<polyline class="st1" points="466.9,107.4 495.9,108.9 493.9,133.9 477.9,138.4 "/>
<path class="st1" d="M136.4,127.9c0,0-3-28,30.5-19"/>
</svg>
