<?xml version="1.0" encoding="utf-8"?>
<!-- Generator: Adobe Illustrator 21.0.0, SVG Export Plug-In . SVG Version: 6.00 Build 0)  -->
<svg version="1.1" id="圖層_1" xmlns="http://www.w3.org/2000/svg" xmlns:xlink="http://www.w3.org/1999/xlink" x="0px" y="0px"
	 viewBox="0 0 152 166" style="enable-background:new 0 0 152 166;" xml:space="preserve">
<style type="text/css">
	.st0{fill:#F3C68A;}
	.st1{fill:#F1BB6D;}
	.st2{fill:#FFFFFF;stroke:#BDE2E8;stroke-width:9;stroke-miterlimit:10;}
</style>
<path class="st0" d="M156.7-84c0,0,185.2-72.9,412.3,17l11.7,4.3H103.1L156.7-84z"/>
<path class="st1" d="M62.3-117.9c0,0,53.8-9.3,111.4,17.6s192.1,22.2,192.1,22.2s40.3,2.8,62.3,15.3H62.3V-117.9z"/>
<path class="st2" d="M37.9,88.6L101.5,72c0,0,7.1-39.1,0.1-60.1l26-2.2c0,0,14,93.7,5.2,123.1L22.5,151.8c0,0-11.4-118.8-7.5-121.6
	c3.9-2.7,20-7.2,20-7.2L37.9,88.6z"/>
<polygon class="st2" points="241.8,14.9 312.6,68.7 216.3,155.2 181.5,125.6 "/>
<path class="st2" d="M93.4,225l15.8-15l19.5,19.5l-15,11.3c0,0,0,46.5-63,82.5L20.6,294C20.7,294,45.5,236.3,93.4,225z"/>
</svg>
